<?xml version="1.0" encoding="UTF-8"?><svg id="Layer_1" xmlns="http://www.w3.org/2000/svg" viewBox="0 0 403 332"><defs><style>.cls-1,.cls-2{fill:#ed83ca;}.cls-2,.cls-3,.cls-4,.cls-5{stroke-width:5px;}.cls-2,.cls-3,.cls-5{stroke:#000;stroke-miterlimit:10;}.cls-6,.cls-3{fill:#e7e8f5;}.cls-7{fill:#020202;}.cls-4{stroke:#020202;stroke-linecap:round;stroke-linejoin:round;}.cls-4,.cls-5{fill:none;}.cls-8{fill:#754c24;}</style></defs><path class="cls-1" d="M284.1,134.51h-9.71c-.33,0-.66.02-.98.05v-22.09c0-39.7-32.48-72.61-72.18-72.47-39.59.14-71.64,32.28-71.64,71.91l.06,17.09c-.04.38-.06.76-.06,1.15v4.41c-.32-.04-.65-.05-.98-.05h-9.71c-10.57,0-19.13,8.57-19.13,19.13v3.57c0,15.93,12.91,28.84,28.84,28.84.23,0,.46,0,.68-.03,2.21-.17,4.25,1.13,5.04,3.2,2.31,6.05,5.41,11.73,9.17,16.9v71.13h116v-70.67c3.87-5.27,7.04-11.09,9.37-17.32.78-2.08,2.81-3.35,5.03-3.23.16,0,.32.01.49.01,7.96,0,15.17-3.23,20.39-8.45,5.22-5.22,8.45-12.43,8.45-20.39v-3.57c0-10.56-8.56-19.13-19.13-19.13Z"/><rect class="cls-5" x="179.33" y="176.29" width="44.14" height="19.05" rx="9.52" ry="9.52"/><line class="cls-4" x1="179.33" y1="185.82" x2="223.47" y2="185.82"/><circle class="cls-2" cx="201.5" cy="164.41" r="5.14"/><path class="cls-2" d="M211.37,150.37c-.2,0-.4.01-.6.03l-2.29-10.07c-.74-3.24-3.62-5.53-6.94-5.53h-.52c-3.32,0-6.2,2.3-6.93,5.54l-2.27,10.03c-.06,0-.13,0-.19,0-3.4,0-6.15,2.75-6.15,6.15s2.75,6.15,6.15,6.15c1.59,0,3.03-.6,4.12-1.59,1.51,1,3.32,1.59,5.3,1.59h.52c2.08,0,3.97-.66,5.51-1.75,1.11,1.08,2.62,1.75,4.29,1.75,3.4,0,6.15-2.75,6.15-6.15s-2.75-6.15-6.15-6.15Z"/><path class="cls-2" d="M126.62,146.96h-4.86c-5.28,0-9.56,4.28-9.56,9.56v1.79c0,7.96,6.46,14.42,14.42,14.42h0"/><line class="cls-5" x1="126.62" y1="158.63" x2="113.13" y2="151.25"/><path class="cls-2" d="M276.34,146.96h4.86c5.28,0,9.56,4.28,9.56,9.56v1.79c0,7.96-6.46,14.42-14.42,14.42h0"/><line class="cls-5" x1="276.34" y1="158.63" x2="289.83" y2="151.25"/><line class="cls-5" x1="185.98" y1="127.43" x2="218.66" y2="127.43"/><path class="cls-8" d="M355,333H48c7.78-15.99,21.86-28.38,39.31-33.83l37.64-11.78c4.22-1.32,7.09-5.23,7.09-9.65v-11.38c0-5.76,4.67-10.43,10.42-10.43h118.07c5.76,0,10.43,4.67,10.43,10.43v11.38c0,4.42,2.87,8.33,7.09,9.65l37.64,11.78c17.44,5.45,31.53,17.84,39.31,33.83Z"/><rect class="cls-5" x="278.89" y="179.61" width="6.75" height="30.02" rx="3.37" ry="3.37"/><rect class="cls-5" x="117.37" y="179.61" width="6.75" height="30.02" rx="3.37" ry="3.37"/><path class="cls-7" d="M201.37,234.57c-23.12-.71-41.91-13.97-51.41-22.19-.12,1.23-.25,2.47-.38,3.7,18.04,26.79,35.88,35.35,51.8,34.61,15.48.72,32.78-7.37,50.32-32.47v-4.92c-9.79,8.26-28.05,20.59-50.33,21.27Z"/><circle class="cls-3" cx="167.48" cy="134.81" r="21.06"/><circle class="cls-7" cx="167.48" cy="134.81" r="7.38"/><circle class="cls-3" cx="235.32" cy="134.81" r="21.06"/><circle class="cls-7" cx="235.32" cy="134.81" r="7.38"/><rect class="cls-7" x="210.5" y="100.83" width="43" height="13.5" rx="6.75" ry="6.75" transform="translate(.2 -.43) rotate(.11)"/><rect class="cls-7" x="149.5" y="100.83" width="43" height="13.5" rx="6.75" ry="6.75" transform="translate(.2 -.32) rotate(.11)"/><circle class="cls-6" cx="23.53" cy="27.56" r="6.04"/><circle class="cls-6" cx="41.95" cy="80.81" r="6.04"/><circle class="cls-6" cx="124.11" cy="27.56" r="6.04"/><circle class="cls-6" cx="361.05" cy="47.59" r="6.04"/><circle class="cls-6" cx="317.38" cy="217.62" r="6.04"/><circle class="cls-6" cx="361.05" cy="272.68" r="6.04"/><circle class="cls-6" cx="355" cy="242.96" r="6.04"/><circle class="cls-6" cx="367.09" cy="132.56" r="6.04"/><circle class="cls-6" cx="250.15" cy="53.63" r="6.04"/><circle class="cls-6" cx="150.37" cy="74.77" r="6.04"/><circle class="cls-6" cx="250.15" cy="197.75" r="6.04"/><circle class="cls-6" cx="156.41" cy="272.68" r="6.04"/><circle class="cls-6" cx="208.22" cy="300.09" r="6.04"/><circle class="cls-6" cx="378.01" cy="21.51" r="6.04"/><circle class="cls-6" cx="29.57" cy="107.46" r="6.04"/><circle class="cls-6" cx="91.35" cy="126.05" r="6.04"/><circle class="cls-6" cx="59.79" cy="211.58" r="6.04"/><circle class="cls-6" cx="85.31" cy="231.98" r="6.04"/><circle class="cls-6" cx="35.61" cy="261.7" r="6.04"/><circle class="cls-6" cx="295.54" cy="27.56" r="6.04"/></svg>