<?xml version="1.0" encoding="UTF-8"?><svg id="Layer_1" xmlns="http://www.w3.org/2000/svg" viewBox="0 0 403 332"><defs><style>.cls-1,.cls-2{fill:#ed83ca;}.cls-2,.cls-3,.cls-4,.cls-5{stroke-width:5px;}.cls-2,.cls-3,.cls-5{stroke:#000;stroke-miterlimit:10;}.cls-6,.cls-3,.cls-7{fill:#e7e8f5;}.cls-8{fill:#020202;}.cls-4{stroke:#020202;stroke-linecap:round;stroke-linejoin:round;}.cls-4,.cls-5{fill:none;}.cls-9{fill:#754c24;}.cls-7{fill-rule:evenodd;}</style></defs><path class="cls-7" d="M353.07,131.04c13.06-2.46,22.93-13.93,22.93-27.7,0-15.57-12.62-28.19-28.19-28.19-4.21,0-8.2.92-11.78,2.57-4.48-9.64-14.25-16.33-25.58-16.33-9.47,0-17.85,4.67-22.97,11.84-1.68-.41-3.43-.63-5.23-.63-6.39,0-12.15,2.74-16.15,7.11-2.37-.65-4.87-1-7.45-1-15.57,0-28.19,12.62-28.19,28.19s11.41,26.94,25.91,28.1c3.45,7.57,11.08,12.83,19.94,12.83,3.12,0,6.09-.65,8.78-1.83,5.15,5.61,12.55,9.13,20.77,9.13s16.15-3.77,21.32-9.74c2.76,2.37,6.35,3.8,10.27,3.8,8.72,0,15.79-7.07,15.79-15.79,0-.8-.06-1.59-.17-2.36Z"/><path class="cls-1" d="M284.1,134.51h-9.71c-.33,0-.66.02-.98.05v-22.09c0-39.7-32.48-72.61-72.18-72.47-39.59.14-71.64,32.28-71.64,71.91l.06,17.09c-.04.38-.06.76-.06,1.15v4.41c-.32-.04-.65-.05-.98-.05h-9.71c-10.57,0-19.13,8.57-19.13,19.13v3.57c0,15.93,12.91,28.84,28.84,28.84.23,0,.46,0,.68-.03,2.21-.17,4.25,1.13,5.04,3.2,2.31,6.05,5.41,11.73,9.17,16.9v71.13h116v-70.67c3.87-5.27,7.04-11.09,9.37-17.32.78-2.08,2.81-3.35,5.03-3.23.16,0,.32.01.49.01,7.96,0,15.17-3.23,20.39-8.45,5.22-5.22,8.45-12.43,8.45-20.39v-3.57c0-10.56-8.56-19.13-19.13-19.13Z"/><rect class="cls-5" x="179.33" y="176.29" width="44.14" height="19.05" rx="9.52" ry="9.52"/><line class="cls-4" x1="179.33" y1="185.82" x2="223.47" y2="185.82"/><circle class="cls-2" cx="201.5" cy="164.41" r="5.14"/><path class="cls-2" d="M211.37,150.37c-.2,0-.4.01-.6.03l-2.29-10.07c-.74-3.24-3.62-5.53-6.94-5.53h-.52c-3.32,0-6.2,2.3-6.93,5.54l-2.27,10.03c-.06,0-.13,0-.19,0-3.4,0-6.15,2.75-6.15,6.15s2.75,6.15,6.15,6.15c1.59,0,3.03-.6,4.12-1.59,1.51,1,3.32,1.59,5.3,1.59h.52c2.08,0,3.97-.66,5.51-1.75,1.11,1.08,2.62,1.75,4.29,1.75,3.4,0,6.15-2.75,6.15-6.15s-2.75-6.15-6.15-6.15Z"/><path class="cls-2" d="M126.62,146.96h-4.86c-5.28,0-9.56,4.28-9.56,9.56v1.79c0,7.96,6.46,14.42,14.42,14.42h0"/><line class="cls-5" x1="126.62" y1="158.63" x2="113.13" y2="151.25"/><path class="cls-2" d="M276.34,146.96h4.86c5.28,0,9.56,4.28,9.56,9.56v1.79c0,7.96-6.46,14.42-14.42,14.42h0"/><line class="cls-5" x1="276.34" y1="158.63" x2="289.83" y2="151.25"/><line class="cls-5" x1="185.98" y1="127.43" x2="218.66" y2="127.43"/><path class="cls-9" d="M355,333H48c7.78-15.99,21.86-28.38,39.31-33.83l37.64-11.78c4.22-1.32,7.09-5.23,7.09-9.65v-11.38c0-5.76,4.67-10.43,10.42-10.43h118.07c5.76,0,10.43,4.67,10.43,10.43v11.38c0,4.42,2.87,8.33,7.09,9.65l37.64,11.78c17.44,5.45,31.53,17.84,39.31,33.83Z"/><rect class="cls-5" x="278.89" y="179.61" width="6.75" height="30.02" rx="3.37" ry="3.37"/><rect class="cls-5" x="117.37" y="179.61" width="6.75" height="30.02" rx="3.37" ry="3.37"/><path class="cls-8" d="M201.37,234.57c-23.12-.71-41.91-13.97-51.41-22.19-.12,1.23-.25,2.47-.38,3.7,18.04,26.79,35.88,35.35,51.8,34.61,15.48.72,32.78-7.37,50.32-32.47v-4.92c-9.79,8.26-28.05,20.59-50.33,21.27Z"/><circle class="cls-3" cx="167.48" cy="134.81" r="21.06"/><circle class="cls-8" cx="167.48" cy="134.81" r="7.38"/><circle class="cls-3" cx="235.32" cy="134.81" r="21.06"/><circle class="cls-8" cx="235.32" cy="134.81" r="7.38"/><rect class="cls-8" x="210.5" y="100.83" width="43" height="13.5" rx="6.75" ry="6.75" transform="translate(.2 -.43) rotate(.11)"/><rect class="cls-8" x="149.5" y="100.83" width="43" height="13.5" rx="6.75" ry="6.75" transform="translate(.2 -.32) rotate(.11)"/><path class="cls-6" d="M253.5,175.94c0,4.29-3.47,7.76-7.76,7.76s-7.76-3.47-7.76-7.76c0-3.14,4.16-10,6.39-13.45.64-1,2.1-1,2.75,0,2.23,3.45,6.39,10.31,6.39,13.45Z"/><path class="cls-7" d="M155.79,78.9c10.86-2.05,19.07-11.58,19.07-23.03,0-12.95-10.49-23.44-23.44-23.44-3.5,0-6.81.77-9.8,2.14-3.72-8.02-11.85-13.58-21.27-13.58-7.88,0-14.84,3.88-19.09,9.84-1.39-.34-2.85-.52-4.35-.52-5.32,0-10.1,2.28-13.43,5.91-1.97-.54-4.05-.83-6.2-.83-12.95,0-23.44,10.49-23.44,23.44s9.48,22.4,21.54,23.36c2.87,6.29,9.21,10.67,16.58,10.67,2.6,0,5.06-.54,7.3-1.52,4.28,4.67,10.44,7.59,17.27,7.59s13.43-3.14,17.72-8.1c2.3,1.97,5.28,3.16,8.54,3.16,7.25,0,13.13-5.88,13.13-13.13,0-.67-.05-1.32-.15-1.96Z"/><path class="cls-7" d="M131.11,269.76c10.42-1.97,18.3-11.11,18.3-22.1,0-12.42-10.07-22.49-22.49-22.49-3.36,0-6.54.73-9.4,2.05-3.57-7.69-11.37-13.03-20.41-13.03-7.56,0-14.24,3.73-18.32,9.44-1.34-.33-2.73-.5-4.17-.5-5.1,0-9.69,2.19-12.89,5.67-1.89-.52-3.89-.79-5.95-.79-12.42,0-22.49,10.07-22.49,22.49s9.1,21.49,20.67,22.42c2.75,6.04,8.84,10.24,15.91,10.24,2.49,0,4.86-.52,7-1.46,4.11,4.48,10.01,7.29,16.57,7.29s12.88-3.01,17.01-7.77c2.2,1.89,5.07,3.03,8.2,3.03,6.96,0,12.6-5.64,12.6-12.6,0-.64-.05-1.27-.14-1.88Z"/></svg>