<?xml version="1.0" encoding="UTF-8"?><svg id="Layer_1" xmlns="http://www.w3.org/2000/svg" viewBox="0 0 403 332"><defs><style>.cls-1,.cls-2,.cls-3,.cls-4,.cls-5{stroke-width:5px;}.cls-1,.cls-2,.cls-5{stroke:#000;stroke-miterlimit:10;}.cls-1,.cls-3,.cls-6{fill:#ed83ca;}.cls-2,.cls-7{fill:#e7e8f5;}.cls-3,.cls-4{stroke:#020202;stroke-linecap:round;stroke-linejoin:round;}.cls-4,.cls-5{fill:none;}.cls-8,.cls-9,.cls-6,.cls-7,.cls-10{stroke-width:0px;}.cls-9{fill:#b13431;}.cls-10{fill:#020202;}</style></defs><path class="cls-6" d="M284.1,134.51h-9.71c-.33,0-.66.02-.98.05v-22.09c0-39.7-32.48-72.61-72.18-72.47-39.59.14-71.64,32.28-71.64,71.91l.06,17.09c-.04.38-.06.76-.06,1.15v4.41c-.32-.04-.65-.05-.98-.05h-9.71c-10.57,0-19.13,8.57-19.13,19.13v3.57c0,15.93,12.91,28.84,28.84,28.84.23,0,.46,0,.68-.03,2.21-.17,4.25,1.13,5.04,3.2,2.31,6.05,5.41,11.73,9.17,16.9v71.13h116v-70.67c3.87-5.27,7.04-11.09,9.37-17.32.78-2.08,2.81-3.35,5.03-3.23.16,0,.32.01.49.01,7.96,0,15.17-3.23,20.39-8.45,5.22-5.22,8.45-12.43,8.45-20.39v-3.57c0-10.56-8.56-19.13-19.13-19.13Z"/><path class="cls-1" d="M126.62,146.96h-4.86c-5.28,0-9.56,4.28-9.56,9.56v1.79c0,7.96,6.46,14.42,14.42,14.42h0"/><line class="cls-5" x1="126.62" y1="158.63" x2="113.13" y2="151.25"/><path class="cls-1" d="M276.34,146.96h4.86c5.28,0,9.56,4.28,9.56,9.56v1.79c0,7.96-6.46,14.42-14.42,14.42h0"/><line class="cls-5" x1="276.34" y1="158.63" x2="289.83" y2="151.25"/><path class="cls-9" d="M354.58,332.16H48.42c7.85-15.58,21.75-27.64,38.89-32.99l37.64-11.78c4.22-1.32,7.09-5.23,7.09-9.65v-11.38c0-5.76,4.67-10.43,10.42-10.43h118.07c5.76,0,10.43,4.67,10.43,10.43v11.38c0,4.42,2.87,8.33,7.09,9.65l37.64,11.78c17.13,5.35,31.04,17.41,38.89,32.99Z"/><rect class="cls-5" x="278.89" y="179.61" width="6.75" height="30.02" rx="3.37" ry="3.37"/><rect class="cls-5" x="117.37" y="179.61" width="6.75" height="30.02" rx="3.37" ry="3.37"/><path class="cls-8" d="M197.17,15.68h8.66c39.14,0,70.92,31.78,70.92,70.92v3.48c0,4.26-3.46,7.72-7.72,7.72h-135.06c-4.26,0-7.72-3.46-7.72-7.72v-3.48c0-39.14,31.78-70.92,70.92-70.92Z"/><circle class="cls-2" cx="168.49" cy="133.55" r="21.06"/><circle class="cls-10" cx="168.49" cy="133.55" r="7.38"/><circle class="cls-2" cx="234.33" cy="133.55" r="21.06"/><circle class="cls-10" cx="234.33" cy="133.55" r="7.38"/><rect class="cls-10" x="145.34" y="106.14" width="43" height="13.5" rx="6.75" ry="6.75"/><rect class="cls-10" x="214.68" y="106.14" width="43" height="13.5" rx="6.75" ry="6.75"/><circle class="cls-1" cx="201.51" cy="163.15" r="5.14"/><line class="cls-5" x1="189.55" y1="126.18" x2="214.6" y2="126.18"/><path class="cls-3" d="M201.5,177.04c0-4.4-4.57-7.97-10.2-7.97s-10.2,3.57-10.2,7.97,4.64,10.73,20.41,10.73,20.41-6.33,20.41-10.73-4.57-7.97-10.2-7.97-10.2,3.57-10.2,7.97"/><line class="cls-4" x1="181.44" y1="178.42" x2="221.86" y2="178.42"/><path class="cls-1" d="M205.81,129.04c-.41-1.68-1.91-2.86-3.64-2.86h-1.32c-1.73,0-3.23,1.18-3.64,2.86l-5.59,22.87c-1.14,4.67,2.4,9.18,7.2,9.18h5.36c4.81,0,8.34-4.5,7.2-9.18l-5.59-22.87Z"/><path class="cls-1" d="M258.66,152.63c-13.32,0-24.11,10.8-24.11,24.11"/><path class="cls-1" d="M144.36,152.63c13.32,0,24.11,10.8,24.11,24.11"/><path class="cls-10" d="M254.65,212.13c-18.76,29.32-37.37,38.6-53.9,37.83-16.1.75-34.17-8-52.41-35.49v-3.69c9.14,8.13,28.45,22.34,52.4,23.07,25.14-.77,45.15-16.38,53.67-24.22l.24,2.5Z"/><circle class="cls-7" cx="23.53" cy="27.56" r="6.04"/><circle class="cls-7" cx="41.95" cy="80.81" r="6.04"/><circle class="cls-7" cx="124.11" cy="27.56" r="6.04"/><circle class="cls-7" cx="361.05" cy="47.59" r="6.04"/><circle class="cls-7" cx="317.38" cy="217.62" r="6.04"/><circle class="cls-7" cx="361.05" cy="272.68" r="6.04"/><circle class="cls-7" cx="355" cy="242.96" r="6.04"/><circle class="cls-7" cx="367.09" cy="132.56" r="6.04"/><circle class="cls-7" cx="250.15" cy="53.63" r="6.04"/><circle class="cls-7" cx="150.37" cy="74.77" r="6.04"/><circle class="cls-7" cx="250.15" cy="197.75" r="6.04"/><circle class="cls-7" cx="156.41" cy="272.68" r="6.04"/><circle class="cls-7" cx="208.22" cy="300.09" r="6.04"/><circle class="cls-7" cx="378.01" cy="21.51" r="6.04"/><circle class="cls-7" cx="29.57" cy="107.46" r="6.04"/><circle class="cls-7" cx="91.35" cy="126.05" r="6.04"/><circle class="cls-7" cx="59.79" cy="211.58" r="6.04"/><circle class="cls-7" cx="85.31" cy="231.98" r="6.04"/><circle class="cls-7" cx="35.61" cy="261.7" r="6.04"/><circle class="cls-7" cx="295.54" cy="27.56" r="6.04"/></svg>