<svg width="400" height="270" viewBox="0 0 400 270" fill="none" xmlns="http://www.w3.org/2000/svg">
<path fill-rule="evenodd" clip-rule="evenodd" d="M354.667 201.469C392.433 194.342 421 161.176 421 121.338C421 76.3011 384.49 39.7911 339.453 39.7911C327.288 39.7911 315.744 42.455 305.375 47.2312C292.419 19.3398 264.157 0 231.378 0C203.979 0 179.736 13.5125 164.95 34.2371C160.105 33.0512 155.041 32.4224 149.831 32.4224C131.334 32.4224 114.688 40.3471 103.103 52.9866C96.2365 51.1095 89.0089 50.1074 81.5473 50.1074C36.5099 50.1074 0 86.6173 0 131.655C0 174.47 32.9968 209.579 74.9479 212.939C84.9304 234.83 107.007 250.046 132.637 250.046C141.666 250.046 150.254 248.157 158.027 244.754C172.933 260.991 194.335 271.169 218.114 271.169C242.742 271.169 264.82 260.252 279.772 242.993C287.761 249.84 298.141 253.975 309.487 253.975C334.718 253.975 355.173 233.521 355.173 208.289C355.173 205.972 355 203.694 354.667 201.469Z" fill="white"/>
</svg>
