<svg width="648" height="493" viewBox="0 0 648 493" fill="none" xmlns="http://www.w3.org/2000/svg">
<path fill-rule="evenodd" clip-rule="evenodd" d="M467.667 312.469C505.433 305.342 534 272.176 534 232.338C534 187.301 497.49 150.791 452.453 150.791C440.288 150.791 428.744 153.455 418.375 158.231C405.419 130.34 377.157 111 344.378 111C316.979 111 292.736 124.513 277.95 145.237C273.105 144.051 268.041 143.422 262.831 143.422C244.334 143.422 227.688 151.347 216.103 163.987C209.237 162.11 202.009 161.107 194.547 161.107C149.51 161.107 113 197.617 113 242.655C113 285.47 145.997 320.579 187.948 323.939C197.93 345.83 220.007 361.046 245.637 361.046C254.666 361.046 263.254 359.157 271.027 355.754C285.933 371.991 307.335 382.169 331.114 382.169C355.742 382.169 377.82 371.252 392.772 353.993C400.761 360.84 411.141 364.975 422.487 364.975C447.718 364.975 468.173 344.521 468.173 319.289C468.173 316.972 468 314.694 467.667 312.469Z" fill="white"/>
</svg>
