<?xml version="1.0" encoding="UTF-8"?><svg id="Layer_1" xmlns="http://www.w3.org/2000/svg" viewBox="0 0 403 332"><defs><style>.cls-1,.cls-2,.cls-3,.cls-4,.cls-5{stroke-width:5px;}.cls-1,.cls-2,.cls-5{stroke:#000;stroke-miterlimit:10;}.cls-1,.cls-6{fill:#ed83ca;}.cls-2,.cls-7,.cls-8{fill:#e7e8f5;}.cls-3{fill:#ea533d;}.cls-3,.cls-4,.cls-9{stroke:#020202;stroke-linecap:round;stroke-linejoin:round;}.cls-4,.cls-5,.cls-9{fill:none;}.cls-7{fill-rule:evenodd;}.cls-7,.cls-10,.cls-11,.cls-12,.cls-6,.cls-8,.cls-13{stroke-width:0px;}.cls-9{stroke-width:7px;}.cls-11{fill:#d8d7ff;}.cls-12{fill:#363;}.cls-13{fill:#020202;}</style></defs><path class="cls-7" d="M353.07,131.04c13.06-2.46,22.93-13.93,22.93-27.7,0-15.57-12.62-28.19-28.19-28.19-4.21,0-8.2.92-11.78,2.57-4.48-9.64-14.25-16.33-25.58-16.33-9.47,0-17.85,4.67-22.97,11.84-1.68-.41-3.43-.63-5.23-.63-6.39,0-12.15,2.74-16.15,7.11-2.37-.65-4.87-1-7.45-1-15.57,0-28.19,12.62-28.19,28.19s11.41,26.94,25.91,28.1c3.45,7.57,11.08,12.83,19.94,12.83,3.12,0,6.09-.65,8.78-1.83,5.15,5.61,12.55,9.13,20.77,9.13s16.15-3.77,21.32-9.74c2.76,2.37,6.35,3.8,10.27,3.8,8.72,0,15.79-7.07,15.79-15.79,0-.8-.06-1.59-.17-2.36Z"/><path class="cls-11" d="M278.56,86.16v82.61H123.53v-82.61c0-2.77.25-5.49.72-8.12,1.3-7.2.48-14.58-1.7-21.56-.89-2.85-1.46-5.84-1.67-8.91-1.55-22.87,16.54-41.9,39.09-41.9,4.64,0,9.1.8,13.22,2.28,4.13-1.49,8.57-2.28,13.22-2.28s9.1.8,13.22,2.28c4.13-1.49,8.59-2.28,13.23-2.28s9.1.8,13.24,2.3c4.14-1.51,8.6-2.3,13.24-2.3,22.7,0,40.89,19.26,39.11,42.33-.16,2.05-.48,4.06-.94,6.01-1.69,7.05-1.91,14.39-.21,21.44.83,3.44,1.27,7.03,1.27,10.72Z"/><path class="cls-6" d="M284.1,129.42h-9.71c-.33,0-.66.02-.98.05v-22.09c0-39.7-32.48-39.06-72.18-38.92-39.59.14-71.64-1.27-71.64,38.37l.06,17.09c-.04.38-.06.76-.06,1.15v4.41c-.32-.04-.65-.05-.98-.05h-9.71c-10.57,0-19.13,8.57-19.13,19.13v3.57c0,15.93,12.91,28.84,28.84,28.84.23,0,.46,0,.68-.03,2.21-.17,4.25,1.13,5.04,3.2,2.31,6.05,5.41,11.73,9.17,16.9v71.13h116v-70.67c3.87-5.27,7.04-11.09,9.37-17.32.78-2.08,2.81-3.35,5.03-3.23.16,0,.32.01.49.01,7.96,0,15.17-3.23,20.39-8.45,5.22-5.22,8.45-12.43,8.45-20.39v-3.57c0-10.56-8.56-19.13-19.13-19.13Z"/><rect class="cls-6" x="129.59" y="43.66" width="143.78" height="96.26" rx="44.4" ry="44.4"/><path class="cls-1" d="M126.62,141.86h-4.86c-5.28,0-9.56,4.28-9.56,9.56v1.79c0,7.96,6.46,14.42,14.42,14.42h0"/><line class="cls-5" x1="126.62" y1="153.53" x2="113.13" y2="146.15"/><path class="cls-1" d="M276.34,141.86h4.86c5.28,0,9.56,4.28,9.56,9.56v1.79c0,7.96-6.46,14.42-14.42,14.42h0"/><line class="cls-5" x1="276.34" y1="153.53" x2="289.83" y2="146.15"/><path class="cls-12" d="M355,333H48.02c7.77-15.99,21.85-28.38,39.3-33.83l37.64-11.78c4.22-1.32,7.09-5.23,7.09-9.65v-11.38c0-5.76,4.67-10.43,10.42-10.43h118.07c5.76,0,10.43,4.67,10.43,10.43v11.38c0,4.42,2.87,8.33,7.09,9.65l37.64,11.78c17.44,5.45,31.53,17.84,39.3,33.83Z"/><path class="cls-5" d="M205.8,125.32c-.41-1.68-1.91-2.86-3.64-2.86h-1.32c-1.73,0-3.23,1.18-3.64,2.86l-5.59,22.87c-1.14,4.67,2.4,9.18,7.2,9.18h5.36c4.81,0,8.34-4.5,7.2-9.18l-5.59-22.87Z"/><path class="cls-3" d="M201.49,179.37c0-5.63-4.57-10.2-10.2-10.2s-10.2,4.57-10.2,10.2,4.64,13.74,20.41,13.74,20.41-8.1,20.41-13.74-4.57-10.2-10.2-10.2-10.2,4.57-10.2,10.2"/><line class="cls-4" x1="181.43" y1="181.14" x2="221.85" y2="181.14"/><rect class="cls-5" x="278.89" y="174.6" width="6.75" height="30.02" rx="3.37" ry="3.37"/><rect class="cls-5" x="117.37" y="174.6" width="6.75" height="30.02" rx="3.37" ry="3.37"/><path class="cls-13" d="M201.37,228.22c-22.06-.67-40.19-12.78-50.05-21.04-.2,1.4-.4,2.81-.61,4.21,17.65,25.48,35.08,33.67,50.67,32.94,15.64.73,33.14-7.53,50.86-33.24v-4.6c-9.65,8.25-28.17,21.03-50.86,21.73Z"/><path class="cls-11" d="M267.09,50.25c-1.26,16.36-14.52,29.58-30.88,30.81-4.97.37-9.7-.34-14.03-1.9-3.5,1.25-7.29,1.93-11.22,1.93s-7.79-.69-11.32-1.96c-3.53,1.27-7.35,1.96-11.32,1.96s-7.78-.69-11.31-1.96c-4.41,1.59-9.25,2.26-14.29,1.83-16.31-1.4-29.38-14.74-30.48-31.07-1.33-19.58,14.16-35.87,33.45-35.87,3.97,0,7.79.69,11.32,1.96,3.53-1.27,7.34-1.96,11.31-1.96s7.79.69,11.32,1.96c3.53-1.27,7.35-1.96,11.32-1.96s7.79.69,11.33,1.97c3.54-1.28,7.36-1.97,11.33-1.97,19.42,0,34.99,16.49,33.47,36.23Z"/><circle class="cls-10" cx="168.04" cy="170.55" r="5.45"/><circle class="cls-2" cx="167.48" cy="134.81" r="23.4"/><circle class="cls-13" cx="167.48" cy="134.81" r="7.38"/><circle class="cls-2" cx="235.32" cy="134.81" r="23.4"/><circle class="cls-13" cx="235.32" cy="134.81" r="7.38"/><line class="cls-5" x1="190.88" y1="132.49" x2="213.62" y2="132.49"/><path class="cls-9" d="M212.94,102.61l25.33-2.22c2.64-.23,5.29.05,7.82.84l3.52,1.09"/><path class="cls-9" d="M190.06,102.61l-25.33-2.22c-2.64-.23-5.29.05-7.82.84l-3.52,1.09"/><path class="cls-8" d="M257.36,177.82c0,4.29-3.47,7.76-7.76,7.76s-7.76-3.47-7.76-7.76c0-3.14,4.16-10,6.39-13.45.64-1,2.1-1,2.75,0,2.23,3.45,6.39,10.31,6.39,13.45Z"/><path class="cls-7" d="M155.79,78.9c10.86-2.05,19.07-11.58,19.07-23.03,0-12.95-10.49-23.44-23.44-23.44-3.5,0-6.81.77-9.8,2.14-3.72-8.02-11.85-13.58-21.27-13.58-7.88,0-14.84,3.88-19.09,9.84-1.39-.34-2.85-.52-4.35-.52-5.32,0-10.1,2.28-13.43,5.91-1.97-.54-4.05-.83-6.2-.83-12.95,0-23.44,10.49-23.44,23.44s9.48,22.4,21.54,23.36c2.87,6.29,9.21,10.67,16.58,10.67,2.6,0,5.06-.54,7.3-1.52,4.28,4.67,10.44,7.59,17.27,7.59s13.43-3.14,17.72-8.1c2.3,1.97,5.28,3.16,8.54,3.16,7.25,0,13.13-5.88,13.13-13.13,0-.67-.05-1.32-.15-1.96Z"/><path class="cls-7" d="M131.11,269.76c10.42-1.97,18.3-11.11,18.3-22.1,0-12.42-10.07-22.49-22.49-22.49-3.36,0-6.54.73-9.4,2.05-3.57-7.69-11.37-13.03-20.41-13.03-7.56,0-14.24,3.73-18.32,9.44-1.34-.33-2.73-.5-4.17-.5-5.1,0-9.69,2.19-12.89,5.67-1.89-.52-3.89-.79-5.95-.79-12.42,0-22.49,10.07-22.49,22.49s9.1,21.49,20.67,22.42c2.75,6.04,8.84,10.24,15.91,10.24,2.49,0,4.86-.52,7-1.46,4.11,4.48,10.01,7.29,16.57,7.29s12.88-3.01,17.01-7.77c2.2,1.89,5.07,3.03,8.2,3.03,6.96,0,12.6-5.64,12.6-12.6,0-.64-.05-1.27-.14-1.88Z"/></svg>