<?xml version="1.0" encoding="UTF-8"?><svg id="Layer_1" xmlns="http://www.w3.org/2000/svg" viewBox="0 0 403 332"><defs><style>.cls-1,.cls-2,.cls-3,.cls-4,.cls-5{stroke-width:5px;}.cls-1,.cls-2,.cls-5{stroke:#000;stroke-miterlimit:10;}.cls-1,.cls-3,.cls-6{fill:#ed83ca;}.cls-2,.cls-7,.cls-8{fill:#e7e8f5;}.cls-3,.cls-4{stroke:#020202;stroke-linecap:round;stroke-linejoin:round;}.cls-4,.cls-5{fill:none;}.cls-7{fill-rule:evenodd;}.cls-7,.cls-9,.cls-10,.cls-6,.cls-8,.cls-11{stroke-width:0px;}.cls-9{fill:#754c24;}.cls-10{fill:#96c;}.cls-11{fill:#020202;}</style></defs><path class="cls-7" d="M353.07,131.04c13.06-2.46,22.93-13.93,22.93-27.7,0-15.57-12.62-28.19-28.19-28.19-4.21,0-8.2.92-11.78,2.57-4.48-9.64-14.25-16.33-25.58-16.33-9.47,0-17.85,4.67-22.97,11.84-1.68-.41-3.43-.63-5.23-.63-6.39,0-12.15,2.74-16.15,7.11-2.37-.65-4.87-1-7.45-1-15.57,0-28.19,12.62-28.19,28.19s11.41,26.94,25.91,28.1c3.45,7.57,11.08,12.83,19.94,12.83,3.12,0,6.09-.65,8.78-1.83,5.15,5.61,12.55,9.13,20.77,9.13s16.15-3.77,21.32-9.74c2.76,2.37,6.35,3.8,10.27,3.8,8.72,0,15.79-7.07,15.79-15.79,0-.8-.06-1.59-.17-2.36Z"/><path class="cls-9" d="M116.94,101.13c0-46.54,37.65-84.29,84.15-84.46,46.63-.17,84.78,38.49,84.78,85.12v175.08c0,7.7-6.24,13.95-13.95,13.95h-140.9c-7.69,0-13.93-6.23-13.95-13.92l-.14-175.75Z"/><path class="cls-6" d="M284.1,135.38h-9.71c-.33,0-.66.02-.98.05v-22.09c0-39.7-32.48-72.61-72.18-72.47-39.59.14-71.64,32.28-71.64,71.91l.06,17.09c-.04.38-.06.76-.06,1.15v4.41c-.32-.04-.65-.05-.98-.05h-9.71c-10.57,0-19.13,8.57-19.13,19.13v3.57c0,15.93,12.91,28.84,28.84,28.84.23,0,.46,0,.68-.03,2.21-.17,4.25,1.13,5.04,3.2,2.31,6.05,5.41,11.73,9.17,16.9v71.13h116v-70.67c3.87-5.27,7.04-11.09,9.37-17.32.78-2.08,2.81-3.35,5.03-3.23.16,0,.32.01.49.01,7.96,0,15.17-3.23,20.39-8.45,5.22-5.22,8.45-12.43,8.45-20.39v-3.57c0-10.56-8.56-19.13-19.13-19.13Z"/><circle class="cls-2" cx="167.48" cy="135.68" r="21.06"/><circle class="cls-11" cx="167.48" cy="135.68" r="7.38"/><circle class="cls-2" cx="235.32" cy="135.68" r="21.06"/><circle class="cls-11" cx="235.32" cy="135.68" r="7.38"/><path class="cls-1" d="M218.06,154.48c-2.42-3.85-4.6-4.38-6.55-4.19l-2.48-10.88c-.8-3.5-3.91-5.98-7.5-5.98h-.56c-3.59,0-6.7,2.49-7.49,5.99l-2.45,10.84c-.07,0-.14-.01-.21-.01-3.7,0-6.7,3.03-6.65,6.74s3.23,6.67,6.88,6.54c.54-.02,20.41,0,21.09,0,3.71,0,6.72-3.05,6.65-6.78-.02-.81-.31-1.6-.74-2.29Z"/><path class="cls-1" d="M126.62,147.82h-4.86c-5.28,0-9.56,4.28-9.56,9.56v1.79c0,7.96,6.46,14.42,14.42,14.42h0"/><line class="cls-5" x1="126.62" y1="159.5" x2="113.13" y2="152.11"/><path class="cls-1" d="M276.34,147.82h4.86c5.28,0,9.56,4.28,9.56,9.56v1.79c0,7.96-6.46,14.42-14.42,14.42h0"/><line class="cls-5" x1="276.34" y1="159.5" x2="289.83" y2="152.11"/><line class="cls-5" x1="187.73" y1="128.3" x2="214.26" y2="128.3"/><path class="cls-10" d="M354.58,333.03H48.42c7.85-15.58,21.75-27.64,38.89-32.99l36.31-11.36,1.33-.42c4.22-1.32,7.09-5.23,7.09-9.65v-11.38c0-5.76,4.67-10.43,10.42-10.43h118.07c5.76,0,10.43,4.67,10.43,10.43v11.38c0,4.42,2.87,8.33,7.09,9.65l1.29.41,36.35,11.37c17.13,5.35,31.04,17.41,38.89,32.99Z"/><path class="cls-9" d="M130.35,87.41c0-33.11,37.75-59.96,70.83-60.08,33.17-.12,72.64,27.38,72.64,60.55l-143.47-.47Z"/><path class="cls-6" d="M262.9,87.88h-126.46c52,0,61.44-33.99,63.07-48.97.06-.56.11-1.1.15-1.6.04.51.09,1.04.15,1.6,1.64,14.98,11.07,48.97,63.08,48.97Z"/><rect class="cls-11" x="149.33" y="97.82" width="33" height="8.42" rx="4.21" ry="4.21"/><rect class="cls-11" x="220.67" y="97.82" width="33" height="8.42" rx="4.21" ry="4.21"/><path class="cls-3" d="M201.49,179.16c0-4.4-4.57-7.97-10.2-7.97s-10.2,3.57-10.2,7.97,4.64,10.73,20.41,10.73,20.41-6.33,20.41-10.73-4.57-7.97-10.2-7.97-10.2,3.57-10.2,7.97"/><line class="cls-4" x1="181.43" y1="180.54" x2="221.85" y2="180.54"/><path class="cls-11" d="M254.65,212.99c-18.76,29.32-37.37,38.6-53.9,37.83-16.1.75-34.17-8-52.41-35.49v-3.69c9.14,8.13,28.45,22.34,52.4,23.07,25.14-.77,45.15-16.38,53.67-24.22l.24,2.5Z"/><path class="cls-7" d="M155.79,78.9c10.86-2.05,19.07-11.58,19.07-23.03,0-12.95-10.49-23.44-23.44-23.44-3.5,0-6.81.77-9.8,2.14-3.72-8.02-11.85-13.58-21.27-13.58-7.88,0-14.84,3.88-19.09,9.84-1.39-.34-2.85-.52-4.35-.52-5.32,0-10.1,2.28-13.43,5.91-1.97-.54-4.05-.83-6.2-.83-12.95,0-23.44,10.49-23.44,23.44s9.48,22.4,21.54,23.36c2.87,6.29,9.21,10.67,16.58,10.67,2.6,0,5.06-.54,7.3-1.52,4.28,4.67,10.44,7.59,17.27,7.59s13.43-3.14,17.72-8.1c2.3,1.97,5.28,3.16,8.54,3.16,7.25,0,13.13-5.88,13.13-13.13,0-.67-.05-1.32-.15-1.96Z"/><path class="cls-7" d="M131.11,269.76c10.42-1.97,18.3-11.11,18.3-22.1,0-12.42-10.07-22.49-22.49-22.49-3.36,0-6.54.73-9.4,2.05-3.57-7.69-11.37-13.03-20.41-13.03-7.56,0-14.24,3.73-18.32,9.44-1.34-.33-2.73-.5-4.17-.5-5.1,0-9.69,2.19-12.89,5.67-1.89-.52-3.89-.79-5.95-.79-12.42,0-22.49,10.07-22.49,22.49s9.1,21.49,20.67,22.42c2.75,6.04,8.84,10.24,15.91,10.24,2.49,0,4.86-.52,7-1.46,4.11,4.48,10.01,7.29,16.57,7.29s12.88-3.01,17.01-7.77c2.2,1.89,5.07,3.03,8.2,3.03,6.96,0,12.6-5.64,12.6-12.6,0-.64-.05-1.27-.14-1.88Z"/><path class="cls-8" d="M257.91,174.41c0,4.29-3.47,7.76-7.76,7.76s-7.76-3.47-7.76-7.76c0-3.14,4.16-10,6.39-13.45.64-1,2.1-1,2.75,0,2.23,3.45,6.39,10.31,6.39,13.45Z"/></svg>