<svg width="403" height="323" viewBox="0 0 403 323" fill="none" xmlns="http://www.w3.org/2000/svg">
<g clip-path="url(#clip0_53_1323)">
<path d="M24.04 48.13C27.3758 48.13 30.08 45.4258 30.08 42.09C30.08 38.7542 27.3758 36.05 24.04 36.05C20.7042 36.05 18 38.7542 18 42.09C18 45.4258 20.7042 48.13 24.04 48.13Z" fill="#D8D7FF"/>
<path d="M42.4697 101.38C45.8055 101.38 48.5097 98.6758 48.5097 95.34C48.5097 92.0042 45.8055 89.3 42.4697 89.3C39.1339 89.3 36.4297 92.0042 36.4297 95.34C36.4297 98.6758 39.1339 101.38 42.4697 101.38Z" fill="#D8D7FF"/>
<path d="M124.63 48.13C127.966 48.13 130.67 45.4258 130.67 42.09C130.67 38.7542 127.966 36.05 124.63 36.05C121.294 36.05 118.59 38.7542 118.59 42.09C118.59 45.4258 121.294 48.13 124.63 48.13Z" fill="#D8D7FF"/>
<path d="M361.56 68.16C364.895 68.16 367.6 65.4558 367.6 62.12C367.6 58.7842 364.895 56.08 361.56 56.08C358.224 56.08 355.52 58.7842 355.52 62.12C355.52 65.4558 358.224 68.16 361.56 68.16Z" fill="#D8D7FF"/>
<path d="M317.9 238.19C321.236 238.19 323.94 235.486 323.94 232.15C323.94 228.814 321.236 226.11 317.9 226.11C314.565 226.11 311.86 228.814 311.86 232.15C311.86 235.486 314.565 238.19 317.9 238.19Z" fill="#D8D7FF"/>
<path d="M361.56 293.25C364.895 293.25 367.6 290.546 367.6 287.21C367.6 283.874 364.895 281.17 361.56 281.17C358.224 281.17 355.52 283.874 355.52 287.21C355.52 290.546 358.224 293.25 361.56 293.25Z" fill="#D8D7FF"/>
<path d="M355.52 263.53C358.856 263.53 361.56 260.826 361.56 257.49C361.56 254.154 358.856 251.45 355.52 251.45C352.185 251.45 349.48 254.154 349.48 257.49C349.48 260.826 352.185 263.53 355.52 263.53Z" fill="#D8D7FF"/>
<path d="M367.61 153.13C370.946 153.13 373.65 150.426 373.65 147.09C373.65 143.754 370.946 141.05 367.61 141.05C364.274 141.05 361.57 143.754 361.57 147.09C361.57 150.426 364.274 153.13 367.61 153.13Z" fill="#D8D7FF"/>
<path d="M378.53 42.08C381.866 42.08 384.57 39.3758 384.57 36.04C384.57 32.7042 381.866 30 378.53 30C375.194 30 372.49 32.7042 372.49 36.04C372.49 39.3758 375.194 42.08 378.53 42.08Z" fill="#D8D7FF"/>
<path d="M30.0898 128.03C33.4256 128.03 36.1298 125.326 36.1298 121.99C36.1298 118.654 33.4256 115.95 30.0898 115.95C26.754 115.95 24.0498 118.654 24.0498 121.99C24.0498 125.326 26.754 128.03 30.0898 128.03Z" fill="#D8D7FF"/>
<path d="M91.8701 146.62C95.2059 146.62 97.9101 143.916 97.9101 140.58C97.9101 137.244 95.2059 134.54 91.8701 134.54C88.5343 134.54 85.8301 137.244 85.8301 140.58C85.8301 143.916 88.5343 146.62 91.8701 146.62Z" fill="#D8D7FF"/>
<path d="M60.3095 232.15C63.6453 232.15 66.3495 229.446 66.3495 226.11C66.3495 222.774 63.6453 220.07 60.3095 220.07C56.9737 220.07 54.2695 222.774 54.2695 226.11C54.2695 229.446 56.9737 232.15 60.3095 232.15Z" fill="#D8D7FF"/>
<path d="M85.8203 252.55C89.1561 252.55 91.8603 249.846 91.8603 246.51C91.8603 243.174 89.1561 240.47 85.8203 240.47C82.4845 240.47 79.7803 243.174 79.7803 246.51C79.7803 249.846 82.4845 252.55 85.8203 252.55Z" fill="#D8D7FF"/>
<path d="M36.1298 282.27C39.4656 282.27 42.1698 279.566 42.1698 276.23C42.1698 272.894 39.4656 270.19 36.1298 270.19C32.794 270.19 30.0898 272.894 30.0898 276.23C30.0898 279.566 32.794 282.27 36.1298 282.27Z" fill="#D8D7FF"/>
<path d="M296.06 48.13C299.395 48.13 302.1 45.4258 302.1 42.09C302.1 38.7542 299.395 36.05 296.06 36.05C292.724 36.05 290.02 38.7542 290.02 42.09C290.02 45.4258 292.724 48.13 296.06 48.13Z" fill="#D8D7FF"/>
</g>
<defs>
<clipPath id="clip0_53_1323">
<rect width="366.57" height="263.26" fill="white" transform="translate(18 30)"/>
</clipPath>
</defs>
</svg>
