<?xml version="1.0" encoding="UTF-8"?><svg id="Layer_1" xmlns="http://www.w3.org/2000/svg" viewBox="0 0 403 332"><defs><style>.cls-1,.cls-2,.cls-3,.cls-4{stroke-width:5px;}.cls-1,.cls-2,.cls-4{stroke:#000;stroke-miterlimit:10;}.cls-1,.cls-5{fill:#ed83ca;}.cls-2,.cls-6{fill:#36f;}.cls-3{stroke:#020202;stroke-linecap:round;stroke-linejoin:round;}.cls-3,.cls-4{fill:none;}.cls-7{fill-rule:evenodd;}.cls-7,.cls-8,.cls-6,.cls-5,.cls-9,.cls-10{stroke-width:0px;}.cls-7,.cls-9{fill:#e7e8f5;}.cls-8{fill:#754c24;}.cls-10{fill:#020202;}</style></defs><path class="cls-7" d="M353.07,131.04c13.06-2.46,22.93-13.93,22.93-27.7,0-15.57-12.62-28.19-28.19-28.19-4.21,0-8.2.92-11.78,2.57-4.48-9.64-14.25-16.33-25.58-16.33-9.47,0-17.85,4.67-22.97,11.84-1.68-.41-3.43-.63-5.23-.63-6.39,0-12.15,2.74-16.15,7.11-2.37-.65-4.87-1-7.45-1-15.57,0-28.19,12.62-28.19,28.19s11.41,26.94,25.91,28.1c3.45,7.57,11.08,12.83,19.94,12.83,3.12,0,6.09-.65,8.78-1.83,5.15,5.61,12.55,9.13,20.77,9.13s16.15-3.77,21.32-9.74c2.76,2.37,6.35,3.8,10.27,3.8,8.72,0,15.79-7.07,15.79-15.79,0-.8-.06-1.59-.17-2.36Z"/><path class="cls-8" d="M280.83,93.7v84.99H121.33v-84.99c0-14.11,6.23-26.77,16.1-35.36,4.32-3.76,6.92-9.12,6.92-14.85v-2.89c0-5.76,4.67-10.43,10.43-10.43h93.43c5.76,0,10.43,4.67,10.43,10.43v3.63c0,5.61,2.5,10.88,6.67,14.63,9.53,8.58,15.52,21.01,15.52,34.84Z"/><path class="cls-5" d="M284.1,145.42h-9.71c-.33,0-.66.02-.98.05v-22.09c0-39.7-32.48-43.54-72.18-43.4-39.59.14-71.64,3.21-71.64,42.84l.06,17.09c-.04.38-.06.76-.06,1.15v4.41c-.32-.04-.65-.05-.98-.05h-9.71c-10.57,0-19.13,8.57-19.13,19.13v3.57c0,15.93,12.91,28.84,28.84,28.84.23,0,.46,0,.68-.03,2.21-.17,4.25,1.13,5.04,3.2,2.31,6.05,5.41,11.73,9.17,16.9v71.13h116v-70.67c3.87-5.27,7.04-11.09,9.37-17.32.78-2.08,2.81-3.35,5.03-3.23.16,0,.32.01.49.01,7.96,0,15.17-3.23,20.39-8.45,5.22-5.22,8.45-12.43,8.45-20.39v-3.57c0-10.56-8.56-19.13-19.13-19.13Z"/><rect class="cls-5" x="129.59" y="66.32" width="143.78" height="96.26" rx="40.25" ry="40.25"/><circle class="cls-9" cx="167.48" cy="145.71" r="17.4"/><circle class="cls-2" cx="167.48" cy="145.71" r="7.38"/><circle class="cls-9" cx="235.32" cy="145.71" r="17.4"/><circle class="cls-2" cx="235.32" cy="145.71" r="7.38"/><path class="cls-1" d="M126.62,157.86h-4.86c-5.28,0-9.56,4.28-9.56,9.56v1.79c0,7.96,6.46,14.42,14.42,14.42h0"/><line class="cls-4" x1="126.62" y1="169.54" x2="113.13" y2="162.15"/><path class="cls-1" d="M276.34,157.86h4.86c5.28,0,9.56,4.28,9.56,9.56v1.79c0,7.96-6.46,14.42-14.42,14.42h0"/><line class="cls-4" x1="276.34" y1="169.54" x2="289.83" y2="162.15"/><path class="cls-6" d="M355,333H48c7.78-15.99,21.86-28.38,39.31-33.83l37.64-11.78c4.22-1.32,7.09-5.23,7.09-9.65v-11.38c0-5.76,4.67-10.43,10.42-10.43h118.07c5.76,0,10.43,4.67,10.43,10.43v11.38c0,4.42,2.87,8.33,7.09,9.65l37.64,11.78c17.44,5.45,31.53,17.84,39.31,33.83Z"/><rect class="cls-8" x="217.87" y="112.5" width="36.1" height="11.34" rx="5.67" ry="5.67" transform="translate(18.74 -31.68) rotate(8)"/><rect class="cls-8" x="149.03" y="112.5" width="36.1" height="11.34" rx="5.67" ry="5.67" transform="translate(-14.82 24.4) rotate(-8)"/><path class="cls-8" d="M267.7,183.07h-1.56c-.89,0-1.61.7-1.67,1.59-.82,12.08-10.89,21.64-23.18,21.64s-22.36-9.56-23.18-21.64c-.06-.89-.78-1.59-1.67-1.59h-29.9c-.9,0-1.62.7-1.68,1.59-.81,12.08-10.88,21.64-23.18,21.64s-22.36-9.56-23.17-21.64c-.06-.89-.78-1.59-1.68-1.59h-1.54c-1.05,0-1.85.94-1.68,1.98,1.92,11.61,6.76,22.3,13.72,31.26.01.01.01.02.03.03,12.66,16.27,32.34,26.81,54.35,26.73,20.67-.07,39.19-9.27,51.74-23.78.01,0,.02-.02.03-.03,8.21-9.49,13.87-21.26,15.9-34.23.17-1.03-.63-1.96-1.68-1.96ZM181.72,198.46c1.65-1.65,3.93-2.67,6.44-2.67h26.23c2.24,0,4.32.68,6.04,1.85.11.08.22.16.33.25,2.69,1.95,4.44,5.12,4.44,8.71,0,5.03-4.07,9.11-9.11,9.11h-26.23c-5.97,0-10.81-4.84-10.81-10.81,0-2.52,1.02-4.79,2.67-6.44Z"/><line class="cls-3" x1="180.09" y1="205.25" x2="224.23" y2="205.25"/><rect class="cls-4" x="180.09" y="195.72" width="44.14" height="19.05" rx="9.52" ry="9.52"/><circle class="cls-4" cx="201.48" cy="175.94" r="7.13"/><path class="cls-1" d="M207.05,132c-.53-2.17-2.47-3.69-4.7-3.69h-1.7c-2.23,0-4.17,1.52-4.7,3.69l-7.21,29.53c-1.47,6.03,3.09,11.85,9.3,11.85h6.92c6.21,0,10.77-5.82,9.3-11.85l-7.21-29.53Z"/><path class="cls-10" d="M259.5,209.58c-20.17,34.81-40.34,45.58-58.12,44.75-17.78.83-37.96-9.93-58.14-44.75,0,0,24.49,27.61,58.13,28.64,33.65-1.03,58.13-28.64,58.13-28.64Z"/><path class="cls-7" d="M155.79,78.9c10.86-2.05,19.07-11.58,19.07-23.03,0-12.95-10.49-23.44-23.44-23.44-3.5,0-6.81.77-9.8,2.14-3.72-8.02-11.85-13.58-21.27-13.58-7.88,0-14.84,3.88-19.09,9.84-1.39-.34-2.85-.52-4.35-.52-5.32,0-10.1,2.28-13.43,5.91-1.97-.54-4.05-.83-6.2-.83-12.95,0-23.44,10.49-23.44,23.44s9.48,22.4,21.54,23.36c2.87,6.29,9.21,10.67,16.58,10.67,2.6,0,5.06-.54,7.3-1.52,4.28,4.67,10.44,7.59,17.27,7.59s13.43-3.14,17.72-8.1c2.3,1.97,5.28,3.16,8.54,3.16,7.25,0,13.13-5.88,13.13-13.13,0-.67-.05-1.32-.15-1.96Z"/><path class="cls-7" d="M131.11,269.76c10.42-1.97,18.3-11.11,18.3-22.1,0-12.42-10.07-22.49-22.49-22.49-3.36,0-6.54.73-9.4,2.05-3.57-7.69-11.37-13.03-20.41-13.03-7.56,0-14.24,3.73-18.32,9.44-1.34-.33-2.73-.5-4.17-.5-5.1,0-9.69,2.19-12.89,5.67-1.89-.52-3.89-.79-5.95-.79-12.42,0-22.49,10.07-22.49,22.49s9.1,21.49,20.67,22.42c2.75,6.04,8.84,10.24,15.91,10.24,2.49,0,4.86-.52,7-1.46,4.11,4.48,10.01,7.29,16.57,7.29s12.88-3.01,17.01-7.77c2.2,1.89,5.07,3.03,8.2,3.03,6.96,0,12.6-5.64,12.6-12.6,0-.64-.05-1.27-.14-1.88Z"/><path class="cls-9" d="M257.91,176.59c0,4.29-3.47,7.76-7.76,7.76s-7.76-3.47-7.76-7.76c0-3.14,4.16-10,6.39-13.45.64-1,2.1-1,2.75,0,2.23,3.45,6.39,10.31,6.39,13.45Z"/></svg>