<?xml version="1.0" encoding="UTF-8"?><svg id="Layer_1" xmlns="http://www.w3.org/2000/svg" viewBox="0 0 403 332"><defs><style>.cls-1,.cls-2,.cls-3,.cls-4{stroke-width:5px;}.cls-1,.cls-2,.cls-4{stroke:#000;stroke-miterlimit:10;}.cls-1,.cls-5{fill:#ed83ca;}.cls-2,.cls-6{fill:#36f;}.cls-3{stroke:#020202;stroke-linecap:round;stroke-linejoin:round;}.cls-3,.cls-4{fill:none;}.cls-7{fill:#754c24;}.cls-7,.cls-6,.cls-5,.cls-8,.cls-9{stroke-width:0px;}.cls-8{fill:#e7e8f5;}.cls-9{fill:#020202;}</style></defs><path class="cls-7" d="M280.83,93.7v84.99H121.33v-84.99c0-14.11,6.23-26.77,16.1-35.36,4.32-3.76,6.92-9.12,6.92-14.85v-2.89c0-5.76,4.67-10.43,10.43-10.43h93.43c5.76,0,10.43,4.67,10.43,10.43v3.63c0,5.61,2.5,10.88,6.67,14.63,9.53,8.58,15.52,21.01,15.52,34.84Z"/><path class="cls-5" d="M284.1,145.42h-9.71c-.33,0-.66.02-.98.05v-22.09c0-39.7-32.48-43.54-72.18-43.4-39.59.14-71.64,3.21-71.64,42.84l.06,17.09c-.04.38-.06.76-.06,1.15v4.41c-.32-.04-.65-.05-.98-.05h-9.71c-10.57,0-19.13,8.57-19.13,19.13v3.57c0,15.93,12.91,28.84,28.84,28.84.23,0,.46,0,.68-.03,2.21-.17,4.25,1.13,5.04,3.2,2.31,6.05,5.41,11.73,9.17,16.9v71.13h116v-70.67c3.87-5.27,7.04-11.09,9.37-17.32.78-2.08,2.81-3.35,5.03-3.23.16,0,.32.01.49.01,7.96,0,15.17-3.23,20.39-8.45,5.22-5.22,8.45-12.43,8.45-20.39v-3.57c0-10.56-8.56-19.13-19.13-19.13Z"/><rect class="cls-5" x="129.59" y="66.32" width="143.78" height="96.26" rx="40.25" ry="40.25"/><circle class="cls-8" cx="167.48" cy="145.71" r="17.4"/><circle class="cls-2" cx="167.48" cy="145.71" r="7.38"/><circle class="cls-8" cx="235.32" cy="145.71" r="17.4"/><circle class="cls-2" cx="235.32" cy="145.71" r="7.38"/><path class="cls-1" d="M126.62,157.86h-4.86c-5.28,0-9.56,4.28-9.56,9.56v1.79c0,7.96,6.46,14.42,14.42,14.42h0"/><line class="cls-4" x1="126.62" y1="169.54" x2="113.13" y2="162.15"/><path class="cls-1" d="M276.34,157.86h4.86c5.28,0,9.56,4.28,9.56,9.56v1.79c0,7.96-6.46,14.42-14.42,14.42h0"/><line class="cls-4" x1="276.34" y1="169.54" x2="289.83" y2="162.15"/><path class="cls-6" d="M355,333H48c7.78-15.99,21.86-28.38,39.31-33.83l37.64-11.78c4.22-1.32,7.09-5.23,7.09-9.65v-11.38c0-5.76,4.67-10.43,10.42-10.43h118.07c5.76,0,10.43,4.67,10.43,10.43v11.38c0,4.42,2.87,8.33,7.09,9.65l37.64,11.78c17.44,5.45,31.53,17.84,39.31,33.83Z"/><rect class="cls-7" x="217.87" y="112.5" width="36.1" height="11.34" rx="5.67" ry="5.67"/><rect class="cls-7" x="149.03" y="112.5" width="36.1" height="11.34" rx="5.67" ry="5.67"/><path class="cls-7" d="M267.7,183.07h-1.56c-.89,0-1.61.7-1.67,1.59-.82,12.08-10.89,21.64-23.18,21.64s-22.36-9.56-23.18-21.64c-.06-.89-.78-1.59-1.67-1.59h-29.9c-.9,0-1.62.7-1.68,1.59-.81,12.08-10.88,21.64-23.18,21.64s-22.36-9.56-23.17-21.64c-.06-.89-.78-1.59-1.68-1.59h-1.54c-1.05,0-1.85.94-1.68,1.98,1.92,11.61,6.76,22.3,13.72,31.26.01.01.01.02.03.03,12.66,16.27,32.34,26.81,54.35,26.73,20.67-.07,39.19-9.27,51.74-23.78.01,0,.02-.02.03-.03,8.21-9.49,13.87-21.26,15.9-34.23.17-1.03-.63-1.96-1.68-1.96ZM181.72,198.46c1.65-1.65,3.93-2.67,6.44-2.67h26.23c2.24,0,4.32.68,6.04,1.85.11.08.22.16.33.25,2.69,1.95,4.44,5.12,4.44,8.71,0,5.03-4.07,9.11-9.11,9.11h-26.23c-5.97,0-10.81-4.84-10.81-10.81,0-2.52,1.02-4.79,2.67-6.44Z"/><line class="cls-3" x1="180.09" y1="205.25" x2="224.23" y2="205.25"/><rect class="cls-4" x="180.09" y="195.72" width="44.14" height="19.05" rx="9.52" ry="9.52"/><circle class="cls-4" cx="201.48" cy="175.94" r="7.13"/><path class="cls-1" d="M207.05,132c-.53-2.17-2.47-3.69-4.7-3.69h-1.7c-2.23,0-4.17,1.52-4.7,3.69l-7.21,29.53c-1.47,6.03,3.09,11.85,9.3,11.85h6.92c6.21,0,10.77-5.82,9.3-11.85l-7.21-29.53Z"/><path class="cls-9" d="M259.5,209.58c-20.17,34.81-40.34,45.58-58.12,44.75-17.78.83-37.96-9.93-58.14-44.75,0,0,24.49,27.61,58.13,28.64,33.65-1.03,58.13-28.64,58.13-28.64Z"/></svg>