<?xml version="1.0" encoding="UTF-8"?><svg id="Layer_1" xmlns="http://www.w3.org/2000/svg" xmlns:xlink="http://www.w3.org/1999/xlink" viewBox="0 0 403 332"><defs><style>.cls-1{fill:none;}.cls-1,.cls-2,.cls-3,.cls-4{stroke:#000;stroke-miterlimit:10;stroke-width:5px;}.cls-5{clip-path:url(#clippath);}.cls-2,.cls-6,.cls-7{fill:#f3f0e3;}.cls-3,.cls-8{fill:#000;}.cls-9{fill:#e7e8f5;}.cls-9,.cls-8,.cls-6,.cls-10{stroke-width:0px;}.cls-4{fill:#ed83ca;}.cls-10{fill:#fff;}</style><clipPath id="clippath"><path class="cls-6" d="M201.17,43.93h0c36.4,0,66.17,25.38,74,58.53,3.01,12.74,1.98,26.1-2.55,38.39l-22.47,60.98c-7.56,20.52-27.11,34.15-48.98,34.15h0c-21.87,0-41.42-13.63-48.98-34.15l-22.17-60.16c-5.2-14.11-5.97-29.59-1.56-43.97,9.43-30.79,38.07-53.77,72.71-53.77Z"/></clipPath></defs><path class="cls-9" d="M332.72,65.37c0,4.29-3.47,7.76-7.76,7.76s-7.76-3.47-7.76-7.76c0-3.14,4.16-10,6.39-13.45.64-1,2.1-1,2.75,0,2.23,3.45,6.39,10.31,6.39,13.45Z"/><path class="cls-9" d="M383.24,153.06c0,4.29-3.47,7.76-7.76,7.76s-7.76-3.47-7.76-7.76c0-3.14,4.16-10,6.39-13.45.64-1,2.1-1,2.75,0,2.23,3.45,6.39,10.31,6.39,13.45Z"/><path class="cls-9" d="M324.96,235.2c0,4.29-3.47,7.76-7.76,7.76s-7.76-3.47-7.76-7.76c0-3.14,4.16-10,6.39-13.45.64-1,2.1-1,2.75,0,2.23,3.45,6.39,10.31,6.39,13.45Z"/><path class="cls-9" d="M383.24,268.57c0,4.29-3.47,7.76-7.76,7.76s-7.76-3.47-7.76-7.76c0-3.14,4.16-10,6.39-13.45.64-1,2.1-1,2.75,0,2.23,3.45,6.39,10.31,6.39,13.45Z"/><path class="cls-9" d="M38.79,39.83c0,4.29-3.47,7.76-7.76,7.76s-7.76-3.47-7.76-7.76c0-3.14,4.16-10,6.39-13.45.64-1,2.1-1,2.75,0,2.23,3.45,6.39,10.31,6.39,13.45Z"/><path class="cls-9" d="M99.77,95.01c0,4.29-3.47,7.76-7.76,7.76s-7.76-3.47-7.76-7.76c0-3.14,4.16-10,6.39-13.45.64-1,2.1-1,2.75,0,2.23,3.45,6.39,10.31,6.39,13.45Z"/><path class="cls-9" d="M46.54,142.08c0,4.29-3.47,7.76-7.76,7.76s-7.76-3.47-7.76-7.76c0-3.14,4.16-10,6.39-13.45.64-1,2.1-1,2.75,0,2.23,3.45,6.39,10.31,6.39,13.45Z"/><path class="cls-9" d="M98.51,224.22c0,4.29-3.47,7.76-7.76,7.76s-7.76-3.47-7.76-7.76c0-3.14,4.16-10,6.39-13.45.64-1,2.1-1,2.75,0,2.23,3.45,6.39,10.31,6.39,13.45Z"/><path class="cls-9" d="M46.54,264.92c0,4.29-3.47,7.76-7.76,7.76s-7.76-3.47-7.76-7.76c0-3.14,4.16-10,6.39-13.45.64-1,2.1-1,2.75,0,2.23,3.45,6.39,10.31,6.39,13.45Z"/><path class="cls-6" d="M316.73,332H89.55l22.87-81.54c5.9-21.06,25.04-35.6,46.82-35.6h87.8c21.78,0,40.9,14.54,46.82,35.6l22.87,81.54Z"/><polygon class="cls-8" points="152.08 282.11 138.08 332 131.85 332 146.31 280.49 152.08 282.11"/><polygon class="cls-8" points="270.47 332 264.25 332 250.25 282.11 256.02 280.49 270.47 332"/><path class="cls-8" d="M242.34,215.85c-9.7,12.47-24.78,20.14-41.16,20.14-10.93,0-21.3-3.41-29.86-9.38-4.24-2.95-8.03-6.54-11.24-10.65-.43.32-.9.6-1.4.84,3.64,7.84,8.44,15.71,14.23,22.15,7.78,8.63,17.34,14.7,28.27,14.7,19.28,0,33.95-18.25,42.33-36.63-.43-.35-.82-.74-1.17-1.15Z"/><path class="cls-7" d="M201.17,43.93h0c36.4,0,66.17,25.38,74,58.53,3.01,12.74,1.98,26.1-2.55,38.39l-22.47,60.98c-7.56,20.52-27.11,34.15-48.98,34.15h0c-21.87,0-41.42-13.63-48.98-34.15l-22.17-60.16c-5.2-14.11-5.97-29.59-1.56-43.97,9.43-30.79,38.07-53.77,72.71-53.77Z"/><g class="cls-5"><path class="cls-8" d="M101.2,15.05c-9.11-3.25-19-4.84-29.33-4.39C32.13,12.4-.12,44.7-1.77,84.44c-1.82,44.09,48.52,80.41,92.2,80.41,72.41,0,59.78-39.19,73.26-39.19s19.61,28.15,37.47,28.15,18.85-28.01,34-28.01c20.27,0,.17,39.06,78.78,39.06,43.69,0,91.99-36.32,90.17-80.41-1.64-39.74-33.9-72.05-73.63-73.79-10.33-.45-20.22,1.15-29.33,4.39"/></g><path class="cls-8" d="M248.39,65.95l33.75,34.94c7.84,8.12,21.38.69,18.75-10.28l-9.53-39.75c-2.14-8.92-11.7-13.87-20.21-10.46l-18.91,7.57c-7.31,2.93-9.32,12.33-3.85,17.99Z"/><path class="cls-8" d="M153.61,65.65l-33.32,35.35c-7.74,8.21-21.37.95-18.87-10.05l9.04-39.87c2.03-8.95,11.52-14.01,20.08-10.71l19,7.33c7.35,2.84,9.48,12.21,4.07,17.94Z"/><rect class="cls-6" x="166.38" y="95.85" width="24.31" height="13.28" rx="5.53" ry="5.53" transform="translate(375.45 162.52) rotate(167.09)"/><rect class="cls-6" x="211.66" y="95.85" width="24.31" height="13.28" rx="5.53" ry="5.53" transform="translate(28.55 -47.4) rotate(12.91)"/><path class="cls-4" d="M188.59,189.55v20.57c0,6.95,5.63,12.58,12.58,12.58s12.58-5.63,12.58-12.58v-20.57"/><line class="cls-1" x1="201.17" y1="212.38" x2="201.17" y2="189.55"/><path class="cls-8" d="M215.53,170.43l-11.01,11.01c-1.85,1.85-4.84,1.85-6.69,0l-11.01-11.01c-3.69-3.69-1.08-10.01,4.14-10.01h20.42c5.22,0,7.84,6.31,4.14,10.01Z"/><path class="cls-2" d="M201.17,182.32c0,11.54-9.36,20.9-20.9,20.9-4.96,0-9.52-1.73-13.1-4.61"/><path class="cls-2" d="M201.17,182.32c0,11.54,9.36,20.9,20.9,20.9,4.96,0,9.52-1.73,13.1-4.61"/><circle class="cls-8" cx="227.64" cy="180.5" r="2.34"/><circle class="cls-8" cx="220.09" cy="187.42" r="2.34"/><circle class="cls-8" cx="230.53" cy="189.76" r="2.34"/><circle class="cls-8" cx="174.82" cy="180.5" r="2.34"/><circle class="cls-8" cx="182.36" cy="187.42" r="2.34"/><circle class="cls-8" cx="171.92" cy="189.76" r="2.34"/><circle class="cls-10" cx="166.35" cy="135.07" r="18.8"/><circle class="cls-3" cx="166.35" cy="135.07" r="7.97"/><circle class="cls-10" cx="234.56" cy="135.07" r="18.8"/><circle class="cls-3" cx="234.56" cy="135.07" r="7.97"/></svg>