<?xml version="1.0" encoding="UTF-8"?><svg id="Layer_1" xmlns="http://www.w3.org/2000/svg" viewBox="0 0 403 332"><defs><style>.cls-1,.cls-2,.cls-3,.cls-4,.cls-5{stroke-width:5px;}.cls-1,.cls-2,.cls-5{stroke:#000;stroke-miterlimit:10;}.cls-1,.cls-3,.cls-6{fill:#ed83ca;}.cls-2,.cls-7{fill:#e7e8f5;}.cls-3,.cls-4,.cls-8{stroke:#020202;stroke-linecap:round;stroke-linejoin:round;}.cls-4,.cls-8,.cls-5{fill:none;}.cls-8{stroke-width:11px;}.cls-9{fill:#754c24;}.cls-9,.cls-10,.cls-6,.cls-7,.cls-11{stroke-width:0px;}.cls-10{fill:#fc6;}.cls-11{fill:#020202;}</style></defs><path class="cls-9" d="M116.94,100.26c0-46.54,37.65-84.29,84.15-84.46,46.63-.17,84.78,38.49,84.78,85.12v134c0,7.7-6.24,13.95-13.95,13.95h-140.9c-7.69,0-13.93-6.23-13.95-13.92l-.14-134.67Z"/><path class="cls-6" d="M284.1,134.51h-9.71c-.33,0-.66.02-.98.05v-22.09c0-39.7-32.48-72.61-72.18-72.47-39.59.14-71.64,32.28-71.64,71.91l.06,17.09c-.04.38-.06.76-.06,1.15v4.41c-.32-.04-.65-.05-.98-.05h-9.71c-10.57,0-19.13,8.57-19.13,19.13v3.57c0,15.93,12.91,28.84,28.84,28.84.23,0,.46,0,.68-.03,2.21-.17,4.25,1.13,5.04,3.2,2.31,6.05,5.41,11.73,9.17,16.9v71.13h116v-70.67c3.87-5.27,7.04-11.09,9.37-17.32.78-2.08,2.81-3.35,5.03-3.23.16,0,.32.01.49.01,7.96,0,15.17-3.23,20.39-8.45,5.22-5.22,8.45-12.43,8.45-20.39v-3.57c0-10.56-8.56-19.13-19.13-19.13Z"/><circle class="cls-2" cx="169.48" cy="134.81" r="21.06"/><circle class="cls-11" cx="169.48" cy="134.81" r="7.38"/><circle class="cls-2" cx="233.32" cy="134.81" r="21.06"/><circle class="cls-11" cx="233.32" cy="134.81" r="7.38"/><path class="cls-1" d="M126.62,146.96h-4.86c-5.28,0-9.56,4.28-9.56,9.56v1.79c0,7.96,6.46,14.42,14.42,14.42h0"/><line class="cls-5" x1="126.62" y1="158.63" x2="113.13" y2="151.25"/><path class="cls-1" d="M276.34,146.96h4.86c5.28,0,9.56,4.28,9.56,9.56v1.79c0,7.96-6.46,14.42-14.42,14.42h0"/><line class="cls-5" x1="276.34" y1="158.63" x2="289.83" y2="151.25"/><line class="cls-5" x1="188.51" y1="124.93" x2="214.29" y2="124.93"/><path class="cls-10" d="M354.58,332.16H48.44c7.84-15.58,21.74-27.64,38.88-32.99l37.64-11.78c4.22-1.32,7.09-5.23,7.09-9.65v-11.38c0-5.76,4.67-10.43,10.42-10.43h118.07c5.76,0,10.43,4.67,10.43,10.43v11.38c0,4.42,2.87,8.33,7.09,9.65l37.64,11.78c17.13,5.35,31.04,17.41,38.88,32.99Z"/><path class="cls-9" d="M130.35,86.55c0-33.11,37.75-59.96,70.83-60.08,33.17-.12,72.64,27.38,72.64,60.55l-143.47-.47Z"/><path class="cls-6" d="M262.9,87.01h-126.46c52,0,61.44-33.99,63.07-48.97.06-.56.11-1.1.15-1.6.04.51.09,1.04.15,1.6,1.64,14.98,11.07,48.97,63.08,48.97Z"/><path class="cls-3" d="M201.49,180.59c0-5.67-4.57-10.26-10.2-10.26s-10.2,4.59-10.2,10.26,4.64,13.82,20.41,13.82,20.41-8.15,20.41-13.82-4.57-10.26-10.2-10.26-10.2,4.59-10.2,10.26"/><line class="cls-4" x1="181.43" y1="182.37" x2="221.85" y2="182.37"/><path class="cls-3" d="M205.73,128.93c-.41-1.69-1.93-2.88-3.67-2.88h-1.33c-1.74,0-3.26,1.19-3.67,2.88l-5.63,23.05c-1.15,4.71,2.42,9.25,7.26,9.25h5.41c4.85,0,8.41-4.54,7.26-9.25l-5.63-23.05Z"/><path class="cls-8" d="M214.29,104.46s5.86-4.76,17.88-4.76,18.18,4.76,18.18,4.76"/><path class="cls-8" d="M152.45,104.46s5.86-4.76,17.88-4.76,18.18,4.76,18.18,4.76"/><rect class="cls-5" x="278.89" y="182.74" width="6.75" height="30.02" rx="3.37" ry="3.37"/><rect class="cls-5" x="117.37" y="182.74" width="6.75" height="30.02" rx="3.37" ry="3.37"/><path class="cls-11" d="M254.65,212.13c-18.76,29.32-37.37,38.6-53.9,37.83-16.1.75-34.17-8-52.41-35.49v-3.69c9.14,8.13,28.45,22.34,52.4,23.07,25.14-.77,45.15-16.38,53.67-24.22l.24,2.5Z"/><circle class="cls-7" cx="23.53" cy="27.56" r="6.04"/><circle class="cls-7" cx="41.95" cy="80.81" r="6.04"/><circle class="cls-7" cx="124.11" cy="27.56" r="6.04"/><circle class="cls-7" cx="361.05" cy="47.59" r="6.04"/><circle class="cls-7" cx="317.38" cy="217.62" r="6.04"/><circle class="cls-7" cx="361.05" cy="272.68" r="6.04"/><circle class="cls-7" cx="355" cy="242.96" r="6.04"/><circle class="cls-7" cx="367.09" cy="132.56" r="6.04"/><circle class="cls-7" cx="250.15" cy="53.63" r="6.04"/><circle class="cls-7" cx="150.37" cy="74.77" r="6.04"/><circle class="cls-7" cx="250.15" cy="197.75" r="6.04"/><circle class="cls-7" cx="156.41" cy="272.68" r="6.04"/><circle class="cls-7" cx="208.22" cy="300.09" r="6.04"/><circle class="cls-7" cx="378.01" cy="21.51" r="6.04"/><circle class="cls-7" cx="29.57" cy="107.46" r="6.04"/><circle class="cls-7" cx="91.35" cy="126.05" r="6.04"/><circle class="cls-7" cx="59.79" cy="211.58" r="6.04"/><circle class="cls-7" cx="85.31" cy="231.98" r="6.04"/><circle class="cls-7" cx="35.61" cy="261.7" r="6.04"/><circle class="cls-7" cx="295.54" cy="27.56" r="6.04"/></svg>